<svg width="54" height="75" viewBox="0 0 54 75" fill="none" xmlns="http://www.w3.org/2000/svg">
<path d="M0.4599 26.8699C0.4599 37.3025 7.8525 52.4874 22.6377 72.4248L22.6375 72.4249C24.4973 74.9328 28.0381 75.4582 30.546 73.5984C30.9928 73.2671 31.3882 72.8717 31.7195 72.4249C46.5048 52.4875 53.8974 37.3025 53.8974 26.8699C53.8974 12.0983 41.9503 0.151184 27.1786 0.151184C12.407 0.151184 0.4599 12.0983 0.4599 26.8699ZM17.3349 26.8699C17.3349 21.4362 21.7449 17.0262 27.1786 17.0262C32.6124 17.0262 37.0224 21.4362 37.0224 26.8699C37.0224 32.3037 32.6124 36.7137 27.1786 36.7137C21.7449 36.7137 17.3349 32.3037 17.3349 26.8699Z" fill="black" fill-opacity="0.4"/>
</svg>
