<svg width="56" height="56" viewBox="0 0 56 56" fill="none" xmlns="http://www.w3.org/2000/svg">
<path d="M28 39.5C29.1046 39.5 30 40.3954 30 41.5C30 42.6046 29.1046 43.5 28 43.5C26.8954 43.5 26 42.6046 26 41.5C26 40.3954 26.8954 39.5 28 39.5Z" fill="#4475F1"/>
<path opacity="0.5" d="M27.9999 30C30.6936 30 33.2733 30.792 35.4693 32.2531C36.159 32.712 36.3462 33.6431 35.8873 34.3328C35.4284 35.0225 34.4973 35.2097 33.8076 34.7508C32.1001 33.6148 30.0977 33 27.9999 33C25.9031 33 23.9015 33.6143 22.1945 34.7493C21.5047 35.208 20.5736 35.0207 20.1149 34.3308C19.6562 33.641 19.8435 32.7099 20.5334 32.2512C22.7288 30.7913 25.3074 30 27.9999 30Z" fill="#4475F1"/>
<path opacity="0.3" d="M28 21C33.3103 21 38.3243 22.9343 42.2245 26.3779C42.8455 26.9262 42.9044 27.8741 42.3561 28.4951C41.8078 29.1161 40.8599 29.175 40.2389 28.6267C36.8817 25.6626 32.5719 24 28 24C23.4283 24 19.1187 25.6624 15.7616 28.6263C15.1405 29.1745 14.1926 29.1156 13.6443 28.4945C13.0961 27.8735 13.155 26.9256 13.7761 26.3773C17.6762 22.934 22.6899 21 28 21Z" fill="#4475F1"/>
<path opacity="0.15" d="M27.9999 12C35.2857 12 42.1635 14.6529 47.5149 19.3768C48.136 19.925 48.195 20.8729 47.6468 21.494C47.0985 22.1151 46.1506 22.1741 45.5295 21.6259C40.7212 17.3813 34.5474 15 27.9999 15C21.453 15 15.2797 17.3809 10.4715 21.6248C9.85042 22.173 8.90251 22.114 8.3543 21.4929C7.8061 20.8718 7.86519 19.9239 8.48628 19.3756C13.8375 14.6524 20.7148 12 27.9999 12Z" fill="#4475F1"/>
</svg>
