<svg width="18" height="20" viewBox="0 0 18 20" fill="none" xmlns="http://www.w3.org/2000/svg">
<path fill-rule="evenodd" clip-rule="evenodd" d="M9.85 10.85V18.3H10C11.4282 18.3 12.3971 18.2987 13.1456 18.2375C13.8742 18.178 14.243 18.0703 14.4982 17.9403C15.1191 17.6239 15.6239 17.1191 15.9403 16.4982C16.0703 16.243 16.178 15.8742 16.2375 15.1456C16.2987 14.3971 16.3 13.4282 16.3 12V10.85H9.85ZM8.15 10.85V18.3H8C6.57182 18.3 5.60292 18.2987 4.85444 18.2375C4.12581 18.178 3.75702 18.0703 3.50183 17.9403C2.8809 17.6239 2.37606 17.1191 2.05968 16.4982C1.92966 16.243 1.82201 15.8742 1.76248 15.1456C1.70132 14.3971 1.7 13.4282 1.7 12V10.85H8.15ZM9.85 9.15H16.3V8C16.3 6.57182 16.2987 5.60292 16.2375 4.85444C16.178 4.12581 16.0703 3.75702 15.9403 3.50183C15.6239 2.8809 15.1191 2.37606 14.4982 2.05968C14.243 1.92966 13.8742 1.82201 13.1456 1.76248C12.3971 1.70132 11.4282 1.7 10 1.7H9.85V9.15ZM8.15 1.7V9.15H1.7V8C1.7 6.57182 1.70132 5.60292 1.76248 4.85444C1.82201 4.12581 1.92966 3.75702 2.05968 3.50183C2.37606 2.8809 2.8809 2.37606 3.50183 2.05968C3.75702 1.92966 4.12581 1.82201 4.85444 1.76248C5.60292 1.70132 6.57182 1.7 8 1.7H8.15ZM10 0C12.8003 0 14.2004 0 15.27 0.544967C16.2108 1.02433 16.9757 1.78924 17.455 2.73005C18 3.79961 18 5.19974 18 8V12C18 14.8003 18 16.2004 17.455 17.27C16.9757 18.2108 16.2108 18.9757 15.27 19.455C14.2004 20 12.8003 20 10 20H8C5.19974 20 3.79961 20 2.73005 19.455C1.78924 18.9757 1.02433 18.2108 0.544967 17.27C0 16.2004 0 14.8003 0 12V8C0 5.19974 0 3.79961 0.544967 2.73005C1.02433 1.78924 1.78924 1.02433 2.73005 0.544967C3.79961 0 5.19974 0 8 0H10Z" fill="#2587FF"/>
</svg>
