<svg width="169" height="39" viewBox="0 0 169 39" fill="none" xmlns="http://www.w3.org/2000/svg">
<rect width="169" height="39" rx="19.5" fill="white" fill-opacity="0.45"/>
<path d="M16.6406 25.1591H17.4702C19.3338 25.1591 20.0213 24.0795 20.5724 22.8523L24.5838 13.3636H22.4134L19.9077 19.5909L17.0099 13.3636H14.8054L18.9645 21.9205L18.8111 22.3125C18.5724 22.9659 18.2088 23.3864 17.3054 23.3864H16.6406V25.1591ZM25.5114 22.608C25.5625 24.2273 27.0455 25.1705 29.0625 25.1705C31.1307 25.1705 32.625 24.1875 32.625 22.5795C32.625 21.4034 31.8239 20.5966 30.7898 20.5341V20.4432C31.7898 20.1761 32.4261 19.5511 32.4261 18.608C32.4261 17.1364 31.1534 16.1591 29.108 16.1591C27.1989 16.1591 25.7614 17.1477 25.733 18.6705H27.7614C27.7841 18.0852 28.3864 17.6761 29.2045 17.6761C30.0227 17.6761 30.517 18.1136 30.517 18.7614C30.517 19.358 30.0625 19.8011 29.2102 19.8011H27.875V21.2614H29.2102C30.0682 21.2614 30.6307 21.7443 30.6307 22.4489C30.6307 23.2443 29.9318 23.6307 29.0511 23.6307C28.1818 23.6307 27.5909 23.2557 27.5511 22.608H25.5114ZM36.2273 16.2727H34.2443V25H36.2273V21.4716H39.608V25H41.5852V16.2727H39.608V19.7841H36.2273V16.2727ZM46.1776 25.1761C47.5469 25.1761 48.3651 24.5341 48.7401 23.8011H48.8082V25H50.7855V19.1591C50.7855 16.8523 48.9048 16.1591 47.2401 16.1591C45.4048 16.1591 43.9957 16.9773 43.5412 18.5682L45.4616 18.8409C45.6662 18.2443 46.2457 17.733 47.2514 17.733C48.206 17.733 48.7287 18.2216 48.7287 19.0795V19.1136C48.7287 19.7045 48.1094 19.733 46.5696 19.8977C44.8764 20.0795 43.2571 20.5852 43.2571 22.5511C43.2571 24.267 44.5128 25.1761 46.1776 25.1761ZM46.7116 23.6648C45.8537 23.6648 45.2401 23.2727 45.2401 22.517C45.2401 21.7273 45.9276 21.3977 46.848 21.267C47.3878 21.1932 48.4673 21.0568 48.7344 20.8409V21.8693C48.7344 22.8409 47.9503 23.6648 46.7116 23.6648ZM51.8764 17.9602H54.7003V25H56.6889V17.9602H59.5128V16.2727H51.8764V17.9602ZM63.1335 19.1136V16.2727H61.1506V25H65.1165C67.3381 25 68.6165 23.7727 68.6222 22.0568C68.6165 20.2955 67.3381 19.1136 65.1165 19.1136H63.1335ZM63.1335 20.8011H65.1165C66.0085 20.8011 66.6506 21.3295 66.6506 22.0852C66.6506 22.8068 66.0085 23.3125 65.1165 23.3125H63.1335V20.8011ZM81.348 13.0455C80.9276 13.3636 80.2628 13.358 79.3594 13.358C79.1037 13.358 78.8366 13.358 78.5469 13.3636C75.5412 13.4034 73.9957 15.4034 73.9957 19.5057V20.2898C73.9957 23.483 75.6094 25.1705 78.1491 25.1705C80.6889 25.1705 82.2912 23.4773 82.2912 20.7841C82.2912 18.1705 80.7685 16.6648 78.6037 16.6648C77.2741 16.6648 76.2685 17.2386 75.723 18.3068H75.6264C75.831 16.1307 76.6491 15.1477 78.6037 15.1023C80.3366 15.0625 81.3082 15.0341 82.0639 14.375L81.348 13.0455ZM78.1605 23.5227C76.8707 23.5227 76.081 22.4886 76.081 20.8409C76.098 19.2159 76.8764 18.2841 78.1491 18.2841C79.4219 18.2841 80.206 19.2159 80.206 20.8409C80.206 22.4943 79.4276 23.5227 78.1605 23.5227ZM87.848 25.1705C90.4048 25.1705 92.0298 23.3693 92.0298 20.6705C92.0298 17.9659 90.4048 16.1591 87.848 16.1591C85.2912 16.1591 83.6662 17.9659 83.6662 20.6705C83.6662 23.3693 85.2912 25.1705 87.848 25.1705ZM87.8594 23.5227C86.4446 23.5227 85.7514 22.2614 85.7514 20.6648C85.7514 19.0682 86.4446 17.7898 87.8594 17.7898C89.2514 17.7898 89.9446 19.0682 89.9446 20.6648C89.9446 22.2614 89.2514 23.5227 87.8594 23.5227ZM93.1733 25H93.8097C95.6847 25 96.5312 23.6818 96.6676 20.7727L96.804 17.9602H99.3097V25H101.298V16.2727H94.9347L94.7812 20.1364C94.6847 22.5852 94.3665 23.3068 93.4631 23.3068H93.1619L93.1733 25ZM105.352 19.1136V16.2727H103.369V25H107.335C109.557 25 110.835 23.7727 110.841 22.0568C110.835 20.2955 109.557 19.1136 107.335 19.1136H105.352ZM105.352 20.8011H107.335C108.227 20.8011 108.869 21.3295 108.869 22.0852C108.869 22.8068 108.227 23.3125 107.335 23.3125H105.352V20.8011ZM112.604 16.2727V25H124.041V16.2727H122.058V23.3068H119.314V16.2727H117.331V23.3068H114.587V16.2727H112.604ZM129.983 25.1705C132.017 25.1705 133.415 24.1761 133.778 22.6591L131.858 22.4432C131.58 23.1818 130.898 23.5682 130.011 23.5682C128.682 23.5682 127.801 22.6932 127.784 21.1989H133.864V20.5682C133.864 17.5057 132.023 16.1591 129.875 16.1591C127.375 16.1591 125.744 17.9943 125.744 20.6875C125.744 23.4261 127.352 25.1705 129.983 25.1705ZM127.79 19.8125C127.852 18.6989 128.676 17.7614 129.903 17.7614C131.085 17.7614 131.881 18.625 131.892 19.8125H127.79Z" fill="black" fill-opacity="0.5"/>
<path d="M150.227 19.5L146.864 16.1364C146.512 15.7849 146.512 15.2151 146.864 14.8636C147.215 14.5121 147.785 14.5121 148.136 14.8636L152.136 18.8636C152.488 19.2151 152.488 19.7849 152.136 20.1364L148.136 24.1364C147.785 24.4879 147.215 24.4879 146.864 24.1364C146.512 23.7849 146.512 23.2151 146.864 22.8636L150.227 19.5Z" fill="black" fill-opacity="0.5"/>
</svg>
