<svg width="62" height="23" viewBox="0 0 62 23" fill="none" xmlns="http://www.w3.org/2000/svg">
<g clip-path="url(#clip0_27_916)">
<path fill-rule="evenodd" clip-rule="evenodd" d="M20.9303 15.0729C20.9303 17.1135 21.103 17.1714 22.0077 17.2872L22.4307 17.3451C22.5654 17.4799 22.5464 17.8273 22.3919 17.9027C20.6747 17.8271 18.955 17.8271 17.2378 17.9027C17.0841 17.8273 17.0643 17.4799 17.1998 17.3451L17.622 17.2872C18.5267 17.1714 18.6994 17.1127 18.6994 15.0729V7.91115C18.6994 5.8697 18.5267 5.81181 17.622 5.69522L17.1998 5.63812C17.0643 5.50329 17.0841 5.1567 17.2378 5.07977C18.9552 5.15777 20.6753 5.15751 22.3927 5.07898C22.5464 5.1567 22.5654 5.50329 22.4307 5.63812L22.0077 5.69522C21.103 5.81181 20.9303 5.8697 20.9303 7.91115V15.0729ZM41.1973 12.9672H44.5697L43.9518 7.94684H43.917L41.1973 12.9672ZM43.0336 5.22412H45.8769L47.977 17.8448H45.2233L44.8161 15.0348H40.1025L38.5141 17.8448H35.5829L43.0336 5.22412ZM53.574 7.29253H51.0492L51.5087 5.22491H54.0327L53.574 7.29253ZM50.7672 8.70663H53.292L51.3495 17.8456H48.8247L50.7672 8.70663ZM55.305 8.70663H57.6887L57.3164 10.3499L57.3528 10.3856C57.9184 9.13015 59.1543 8.45919 60.4955 8.45919C60.7609 8.45919 61.0081 8.47743 61.2719 8.51232L60.7609 10.9511C60.4076 10.8805 60.0542 10.7925 59.7009 10.7925C57.7758 10.7925 57.0882 12.2415 56.7523 13.7984L55.9046 17.8448H53.3981L55.305 8.70663Z" fill="#A0A0A0"/>
<path fill-rule="evenodd" clip-rule="evenodd" d="M25.4609 11.1066C25.4609 13.7635 26.5961 17.3841 29.8846 17.3841C32.0766 17.3841 33.8472 15.7471 33.8472 11.8775C33.8472 8.97002 32.54 5.60012 29.4805 5.60012C27.5571 5.60012 25.4609 7.0055 25.4609 11.1066ZM36.4623 11.5302C36.4623 14.5336 34.6544 16.9407 32.1154 17.7505C32.0006 17.8274 32.0766 17.9805 32.2897 18.1542C33.3853 19.117 35.0965 20.6382 36.5391 21.0617C37.001 21.1965 37.462 21.2734 37.9239 21.2734C38.2536 21.2694 38.5797 21.204 38.8856 21.0807C39.0013 21.1386 39.0599 21.3504 39.0013 21.4662C38.4238 21.9079 37.4248 22.0626 36.5969 22.0626C34.0199 22.0626 31.3652 20.5224 29.4805 18.5198C29.1343 18.1732 29.0005 18.1153 28.7691 18.0963C25.2692 17.8068 22.8458 14.9572 22.8458 11.6642C22.8458 7.73674 25.6914 4.82922 29.7309 4.82922C34.1736 4.82922 36.4623 8.06429 36.4623 11.5302Z" fill="#A0A0A0"/>
<path fill-rule="evenodd" clip-rule="evenodd" d="M13.0893 17.2351C13.1378 17.1176 13.1628 16.9917 13.1627 16.8646V6.12359C13.1627 5.99646 13.1376 5.87057 13.089 5.75313C13.0404 5.63569 12.9691 5.52898 12.8793 5.43912C12.7895 5.34927 12.6828 5.27801 12.5655 5.22943C12.4481 5.18085 12.3224 5.1559 12.1954 5.15601H1.46649C0.932545 5.15601 0.5 5.58825 0.5 6.1228V16.8654C0.5 17.1217 0.601609 17.3676 0.782519 17.549C0.963429 17.7304 1.20885 17.8326 1.46491 17.833H12.1962C12.3231 17.833 12.4489 17.8079 12.5662 17.7592C12.6835 17.7106 12.7901 17.6392 12.8799 17.5493C12.9696 17.4594 13.0408 17.3526 13.0893 17.2351ZM8.21214 7.46948V10.239H10.9801V12.8999H8.21214V15.6733H5.54557V12.9007H2.77681V10.2358L5.54557 10.2406V7.46948H8.21214Z" fill="#A0A0A0"/>
</g>
<defs>
<clipPath id="clip0_27_916">
<rect width="61" height="23" fill="white" transform="translate(0.5)"/>
</clipPath>
</defs>
</svg>
